# xmcd CD database file
#
# Track frame offsets:
#	150
#	14279
#	28401
#	42837
#	58224
#	72789
#	87611
#	100520
#	112728
#	125321
#	139874
#	154669
#	167877
#	180546
#	193124
#	204704
#	217746
#	231109
#	244558
#	257853
#	269933
#	280995
#
# Disc length: 3885 seconds
#
# Revision: 0
# Processed by: cddbd v1.5.2PL0 Copyright (c) Steve Scherf et al.
# Submitted via: CDex 1.51
#
DISCID=430f2b16
DTITLE=Big Joe Williams - Delta and Chicago Blues Founder
DYEAR=1950
DGENRE=Blues
TTITLE0=little leg woman (1935)
TTITLE1=Somebody's Been borrowing that stuff (1935)
TTITLE2=Stepfather blues (1935)
TTITLE3=Baby please don't go (1935)
TTITLE4=Stack O' Dollars (1935)
TTITLE5=Wild cow Blues (1935)
TTITLE6=Crawlin'  king Snake (1941)
TTITLE7=Peach orchard mama (1941)
TTITLE8=Please don't go (1941)
TTITLE9=Highway 49 (1941)
TTITLE10=Someday Baby (1941)
TTITLE11=Drop down blues (1945)
TTITLE12=Baby please don't go (1947)
TTITLE13=Mellow Apples (1947)
TTITLE14=King Biscuit stomp (1947)
TTITLE15=I'm a highway man (1947)
TTITLE16=House lady blues (1947)
TTITLE17=Don't you leave me here (1947)
TTITLE18=Goin' Back home (1956)
TTITLE19=Baby left town (1956)
TTITLE20=King's Higway (1956)
TTITLE21=Eula Mae (1956)
EXTD=YEAR: 1950
EXTT0=
EXTT1=
EXTT2=
EXTT3=
EXTT4=
EXTT5=
EXTT6=
EXTT7=
EXTT8=
EXTT9=
EXTT10=
EXTT11=
EXTT12=
EXTT13=
EXTT14=
EXTT15=
EXTT16=
EXTT17=
EXTT18=
EXTT19=
EXTT20=
EXTT21=
PLAYORDER=
